<svg width="25" height="24" viewBox="0 0 25 24" fill="none" xmlns="http://www.w3.org/2000/svg">
<path d="M16.25 12C16.25 12.9548 15.8549 13.8704 15.1517 14.5456C14.4484 15.2207 13.4946 15.6 12.5 15.6C11.5054 15.6 10.5516 15.2207 9.84835 14.5456C9.14509 13.8704 8.75 12.9548 8.75 12C8.75 11.7948 8.7725 11.5944 8.81125 11.4H7.5V16.1964C7.5 16.53 7.78125 16.8 8.12875 16.8H16.8725C17.039 16.7997 17.1986 16.7359 17.3163 16.6228C17.4339 16.5096 17.5 16.3563 17.5 16.1964V11.4H16.1888C16.2275 11.5944 16.25 11.7948 16.25 12ZM12.5 14.4C12.8284 14.3999 13.1535 14.3377 13.4569 14.217C13.7603 14.0963 14.0359 13.9194 14.268 13.6964C14.5002 13.4735 14.6843 13.2088 14.8099 12.9175C14.9355 12.6262 15.0001 12.314 15 11.9988C14.9999 11.6835 14.9352 11.3714 14.8094 11.0802C14.6837 10.7889 14.4994 10.5243 14.2671 10.3015C14.0349 10.0786 13.7592 9.90185 13.4557 9.78129C13.1523 9.66072 12.8271 9.5987 12.4987 9.59878C11.8355 9.59894 11.1996 9.85201 10.7307 10.3023C10.2619 10.7526 9.99858 11.3633 9.99875 12C9.99892 12.6367 10.2625 13.2472 10.7316 13.6973C11.2007 14.1474 11.8368 14.4001 12.5 14.4ZM15.5 9.47998H16.9988C17.0983 9.47998 17.1938 9.44209 17.2644 9.37461C17.3349 9.30713 17.3747 9.21557 17.375 9.11998V7.68118C17.375 7.58538 17.3354 7.49351 17.2648 7.42577C17.1942 7.35804 17.0985 7.31998 16.9988 7.31998H15.5C15.4002 7.31998 15.3045 7.35804 15.234 7.42577C15.1634 7.49351 15.1238 7.58538 15.1238 7.68118V9.11998C15.125 9.31798 15.2937 9.47998 15.5 9.47998ZM12.5 0.47998C9.3174 0.47998 6.26515 1.69369 4.01472 3.85411C1.76428 6.01453 0.5 8.94469 0.5 12C0.5 15.0553 1.76428 17.9854 4.01472 20.1459C6.26515 22.3063 9.3174 23.52 12.5 23.52C14.0759 23.52 15.6363 23.222 17.0922 22.6431C18.5481 22.0641 19.871 21.2156 20.9853 20.1459C22.0996 19.0761 22.9835 17.8062 23.5866 16.4085C24.1896 15.0108 24.5 13.5128 24.5 12C24.5 10.4872 24.1896 8.98914 23.5866 7.59147C22.9835 6.1938 22.0996 4.92384 20.9853 3.85411C19.871 2.78438 18.5481 1.93582 17.0922 1.35689C15.6363 0.777954 14.0759 0.47998 12.5 0.47998ZM18.75 16.6668C18.75 17.4 18.125 18 17.3612 18H7.63875C6.875 18 6.25 17.4 6.25 16.6668V7.33318C6.25 6.59998 6.875 5.99998 7.63875 5.99998H17.3612C18.125 5.99998 18.75 6.59998 18.75 7.33318V16.6668Z" fill="#0D0D0D"/>
</svg>
